<svg xmlns="http://www.w3.org/2000/svg" width="78" height="37" viewBox="0 0 78 37">
    <path fill="#FFF" fill-rule="evenodd" d="M26.839 11.027a9.69 9.69 0 0 0-7.287 3.24c-1.467-2.143-3.721-3.24-6.71-3.24-2.358 0-4.35.993-5.87 2.56v-2.194H0v25.189h6.972V22.89c0-3.502 1.415-5.383 3.879-5.383 2.516 0 3.774 1.83 3.774 5.122v13.953h6.972V22.89c0-3.502 1.363-5.383 3.879-5.383s3.774 1.83 3.774 5.122v13.953h6.972V22.89c0-7.735-3.565-11.863-9.383-11.863zM44.085 7.89a3.864 3.864 0 0 0 3.879-3.867c0-2.195-1.73-3.92-3.88-3.92-2.2 0-3.93 1.725-3.93 3.92 0 2.143 1.73 3.867 3.93 3.867zm-3.512 28.69h6.971V11.394h-6.971v25.189zm25.266-25.554c7.286 0 12.161 5.696 12.161 12.96C78 31.251 73.125 37 65.839 37c-2.674 0-4.98-.993-6.71-2.56v2.142h-6.972V0h6.972v13.588c1.73-1.568 4.036-2.561 6.71-2.561zm-.734 19.597c3.722 0 5.923-2.874 5.923-6.637 0-3.762-2.201-6.637-5.923-6.637-3.774 0-5.976 2.875-5.976 6.637 0 3.763 2.202 6.637 5.976 6.637z"/>
</svg>
